<svg width="214" height="36" viewBox="0 0 214 36" fill="none" xmlns="http://www.w3.org/2000/svg">
<path d="M33.5856 31.304C33.7776 31.72 33.8736 32.136 33.8736 32.552C33.8736 33.288 33.5696 33.912 32.9616 34.424C32.3856 34.936 31.7136 35.192 30.9456 35.192C30.4336 35.192 29.9536 35.064 29.5056 34.808C29.0576 34.52 28.7056 34.088 28.4496 33.512L25.5696 27.08H8.67363L5.79363 33.512C5.53763 34.088 5.18563 34.52 4.73763 34.808C4.28963 35.064 3.79363 35.192 3.24963 35.192C2.51363 35.192 1.84163 34.936 1.23363 34.424C0.625625 33.912 0.321625 33.288 0.321625 32.552C0.321625 32.136 0.417625 31.72 0.609625 31.304L13.8576 2.84C14.1456 2.2 14.5776 1.72 15.1536 1.4C15.7616 1.048 16.4016 0.871999 17.0736 0.871999C17.7456 0.871999 18.3696 1.048 18.9456 1.4C19.5536 1.72 20.0016 2.2 20.2896 2.84L33.5856 31.304ZM10.7856 22.28H23.4576L17.1216 8.024L10.7856 22.28ZM51.4986 10.952C53.5466 10.952 55.3546 11.448 56.9226 12.44C58.4906 13.432 59.7066 14.84 60.5706 16.664C61.4666 18.488 61.9146 20.616 61.9146 23.048C61.9146 25.48 61.4666 27.64 60.5706 29.528C59.7066 31.384 58.4746 32.824 56.8746 33.848C55.3066 34.872 53.5146 35.384 51.4986 35.384C49.8026 35.384 48.2826 35.016 46.9386 34.28C45.6266 33.544 44.6186 32.52 43.9146 31.208V32.408C43.9146 33.272 43.6426 33.96 43.0986 34.472C42.5546 34.984 41.8346 35.24 40.9386 35.24C40.0426 35.24 39.3226 34.984 38.7786 34.472C38.2666 33.96 38.0106 33.272 38.0106 32.408V3.704C38.0106 2.872 38.2826 2.2 38.8266 1.688C39.4026 1.176 40.1386 0.919998 41.0346 0.919998C41.9306 0.919998 42.6506 1.16 43.1946 1.64C43.7386 2.12 44.0106 2.776 44.0106 3.608V14.936C44.7146 13.656 45.7226 12.68 47.0346 12.008C48.3466 11.304 49.8346 10.952 51.4986 10.952ZM49.9146 30.728C51.8026 30.728 53.2746 30.056 54.3306 28.712C55.3866 27.368 55.9146 25.48 55.9146 23.048C55.9146 20.648 55.3866 18.808 54.3306 17.528C53.3066 16.248 51.8346 15.608 49.9146 15.608C47.9946 15.608 46.5066 16.264 45.4506 17.576C44.4266 18.856 43.9146 20.712 43.9146 23.144C43.9146 25.576 44.4266 27.448 45.4506 28.76C46.5066 30.072 47.9946 30.728 49.9146 30.728ZM77.5428 35.384C75.1428 35.384 73.0308 34.888 71.2068 33.896C69.4148 32.904 68.0228 31.48 67.0308 29.624C66.0388 27.768 65.5428 25.608 65.5428 23.144C65.5428 20.68 66.0388 18.536 67.0308 16.712C68.0228 14.856 69.4148 13.432 71.2068 12.44C73.0308 11.448 75.1428 10.952 77.5428 10.952C79.9428 10.952 82.0388 11.448 83.8308 12.44C85.6548 13.432 87.0468 14.856 88.0068 16.712C88.9988 18.536 89.4948 20.68 89.4948 23.144C89.4948 25.608 88.9988 27.768 88.0068 29.624C87.0468 31.48 85.6548 32.904 83.8308 33.896C82.0388 34.888 79.9428 35.384 77.5428 35.384ZM77.4948 30.728C79.4468 30.728 80.9348 30.088 81.9588 28.808C82.9828 27.528 83.4948 25.64 83.4948 23.144C83.4948 20.68 82.9828 18.808 81.9588 17.528C80.9348 16.216 79.4628 15.56 77.5428 15.56C75.6228 15.56 74.1348 16.216 73.0788 17.528C72.0548 18.808 71.5428 20.68 71.5428 23.144C71.5428 25.64 72.0548 27.528 73.0788 28.808C74.1028 30.088 75.5748 30.728 77.4948 30.728ZM112.976 11.048C113.904 11.048 114.64 11.304 115.184 11.816C115.728 12.328 116 13.016 116 13.88V32.504C116 33.336 115.712 34.008 115.136 34.52C114.592 35.032 113.872 35.288 112.976 35.288C112.112 35.288 111.424 35.048 110.912 34.568C110.4 34.088 110.144 33.432 110.144 32.6V31.4C109.408 32.68 108.416 33.672 107.168 34.376C105.92 35.048 104.512 35.384 102.944 35.384C97.1841 35.384 94.3041 32.152 94.3041 25.688V13.88C94.3041 13.016 94.5761 12.328 95.1201 11.816C95.6641 11.304 96.3841 11.048 97.2801 11.048C98.2081 11.048 98.9441 11.304 99.4881 11.816C100.032 12.328 100.304 13.016 100.304 13.88V25.736C100.304 27.4 100.64 28.632 101.312 29.432C101.984 30.232 103.04 30.632 104.48 30.632C106.144 30.632 107.472 30.088 108.464 29C109.488 27.88 110 26.408 110 24.584V13.88C110 13.016 110.272 12.328 110.816 11.816C111.36 11.304 112.08 11.048 112.976 11.048ZM134.437 30.824C136.037 30.92 136.837 31.64 136.837 32.984C136.837 33.752 136.517 34.344 135.877 34.76C135.269 35.144 134.389 35.304 133.237 35.24L131.941 35.144C126.565 34.76 123.877 31.88 123.877 26.504V16.04H121.477C120.613 16.04 119.941 15.848 119.461 15.464C119.013 15.08 118.789 14.52 118.789 13.784C118.789 13.048 119.013 12.488 119.461 12.104C119.941 11.72 120.613 11.528 121.477 11.528H123.877V7.112C123.877 6.248 124.149 5.56 124.693 5.048C125.237 4.536 125.973 4.28 126.901 4.28C127.797 4.28 128.517 4.536 129.061 5.048C129.605 5.56 129.877 6.248 129.877 7.112V11.528H133.957C134.821 11.528 135.477 11.72 135.925 12.104C136.405 12.488 136.645 13.048 136.645 13.784C136.645 14.52 136.405 15.08 135.925 15.464C135.477 15.848 134.821 16.04 133.957 16.04H129.877V26.936C129.877 29.304 130.965 30.568 133.141 30.728L134.437 30.824ZM183.571 0.919998C184.467 0.919998 185.187 1.208 185.731 1.784C186.275 2.328 186.547 3.064 186.547 3.992V32.408C186.547 33.304 186.291 34.008 185.779 34.52C185.267 35.032 184.595 35.288 183.763 35.288C182.931 35.288 182.275 35.032 181.795 34.52C181.315 34.008 181.075 33.304 181.075 32.408V12.632L172.915 28.088C172.531 28.792 172.115 29.32 171.667 29.672C171.219 29.992 170.691 30.152 170.083 30.152C169.475 30.152 168.947 29.992 168.499 29.672C168.051 29.352 167.635 28.824 167.251 28.088L159.043 12.872V32.408C159.043 33.272 158.787 33.976 158.275 34.52C157.795 35.032 157.139 35.288 156.307 35.288C155.475 35.288 154.819 35.032 154.339 34.52C153.859 34.008 153.619 33.304 153.619 32.408V3.992C153.619 3.064 153.875 2.328 154.387 1.784C154.931 1.208 155.651 0.919998 156.547 0.919998C157.795 0.919998 158.771 1.608 159.475 2.984L170.131 23.288L180.739 2.984C181.443 1.608 182.387 0.919998 183.571 0.919998ZM211.93 28.568C212.474 28.568 212.906 28.776 213.226 29.192C213.578 29.608 213.754 30.168 213.754 30.872C213.754 31.864 213.162 32.696 211.978 33.368C210.89 33.976 209.658 34.472 208.282 34.856C206.906 35.208 205.594 35.384 204.346 35.384C200.57 35.384 197.578 34.296 195.37 32.12C193.162 29.944 192.058 26.968 192.058 23.192C192.058 20.792 192.538 18.664 193.498 16.808C194.458 14.952 195.802 13.512 197.53 12.488C199.29 11.464 201.274 10.952 203.482 10.952C205.594 10.952 207.434 11.416 209.002 12.344C210.57 13.272 211.786 14.584 212.65 16.28C213.514 17.976 213.946 19.976 213.946 22.28C213.946 23.656 213.338 24.344 212.122 24.344H197.962C198.154 26.552 198.778 28.184 199.834 29.24C200.89 30.264 202.426 30.776 204.442 30.776C205.466 30.776 206.362 30.648 207.13 30.392C207.93 30.136 208.826 29.784 209.818 29.336C210.778 28.824 211.482 28.568 211.93 28.568ZM203.626 15.176C201.994 15.176 200.682 15.688 199.69 16.712C198.73 17.736 198.154 19.208 197.962 21.128H208.81C208.746 19.176 208.266 17.704 207.37 16.712C206.474 15.688 205.226 15.176 203.626 15.176Z" fill="#68C27C"/>
</svg>
