<svg width="128" height="36" viewBox="0 0 128 36" fill="none" xmlns="http://www.w3.org/2000/svg">
<path d="M27.2132 0.919998C28.1412 0.919998 28.8772 1.208 29.4212 1.784C29.9652 2.328 30.2372 3.064 30.2372 3.992V32.168C30.2372 33.096 29.9492 33.848 29.3732 34.424C28.8292 35 28.1092 35.288 27.2132 35.288C26.2852 35.288 25.5492 35 25.0052 34.424C24.4612 33.848 24.1892 33.096 24.1892 32.168V20.312H6.86119V32.168C6.86119 33.096 6.57319 33.848 5.99719 34.424C5.45319 35 4.71719 35.288 3.78919 35.288C2.89319 35.288 2.15719 35 1.58119 34.424C1.03719 33.848 0.765188 33.096 0.765188 32.168V3.992C0.765188 3.064 1.03719 2.328 1.58119 1.784C2.12519 1.208 2.86119 0.919998 3.78919 0.919998C4.71719 0.919998 5.45319 1.208 5.99719 1.784C6.57319 2.328 6.86119 3.064 6.86119 3.992V15.32H24.1892V3.992C24.1892 3.064 24.4612 2.328 25.0052 1.784C25.5492 1.208 26.2852 0.919998 27.2132 0.919998ZM47.6912 35.384C45.2912 35.384 43.1792 34.888 41.3552 33.896C39.5632 32.904 38.1712 31.48 37.1792 29.624C36.1872 27.768 35.6912 25.608 35.6912 23.144C35.6912 20.68 36.1872 18.536 37.1792 16.712C38.1712 14.856 39.5632 13.432 41.3552 12.44C43.1792 11.448 45.2912 10.952 47.6912 10.952C50.0912 10.952 52.1872 11.448 53.9792 12.44C55.8032 13.432 57.1952 14.856 58.1552 16.712C59.1472 18.536 59.6432 20.68 59.6432 23.144C59.6432 25.608 59.1472 27.768 58.1552 29.624C57.1952 31.48 55.8032 32.904 53.9792 33.896C52.1872 34.888 50.0912 35.384 47.6912 35.384ZM47.6432 30.728C49.5952 30.728 51.0832 30.088 52.1072 28.808C53.1312 27.528 53.6432 25.64 53.6432 23.144C53.6432 20.68 53.1312 18.808 52.1072 17.528C51.0832 16.216 49.6112 15.56 47.6912 15.56C45.7712 15.56 44.2832 16.216 43.2272 17.528C42.2032 18.808 41.6912 20.68 41.6912 23.144C41.6912 25.64 42.2032 27.528 43.2272 28.808C44.2512 30.088 45.7232 30.728 47.6432 30.728ZM92.4846 10.952C95.0446 10.952 96.9966 11.72 98.3406 13.256C99.7166 14.76 100.405 17.208 100.405 20.6V32.408C100.405 33.336 100.117 34.056 99.5406 34.568C98.9966 35.048 98.2766 35.288 97.3806 35.288C96.5166 35.288 95.7966 35.048 95.2206 34.568C94.6766 34.056 94.4046 33.336 94.4046 32.408V20.6C94.4046 18.84 94.0846 17.592 93.4446 16.856C92.8366 16.088 91.8926 15.704 90.6126 15.704C89.0446 15.704 87.7966 16.248 86.8686 17.336C85.9406 18.392 85.4766 19.848 85.4766 21.704V32.408C85.4766 33.336 85.1886 34.056 84.6126 34.568C84.0686 35.048 83.3646 35.288 82.5006 35.288C81.6366 35.288 80.9166 35.048 80.3406 34.568C79.7646 34.056 79.4766 33.336 79.4766 32.408V20.6C79.4766 18.84 79.1566 17.592 78.5166 16.856C77.9086 16.088 76.9646 15.704 75.6846 15.704C74.1166 15.704 72.8686 16.248 71.9406 17.336C71.0446 18.392 70.5966 19.848 70.5966 21.704V32.408C70.5966 33.336 70.3086 34.056 69.7326 34.568C69.1566 35.048 68.4366 35.288 67.5726 35.288C66.7086 35.288 65.9886 35.048 65.4126 34.568C64.8686 34.056 64.5966 33.336 64.5966 32.408V13.832C64.5966 12.936 64.8846 12.248 65.4606 11.768C66.0366 11.288 66.7566 11.048 67.6206 11.048C68.4526 11.048 69.1246 11.288 69.6366 11.768C70.1806 12.216 70.4526 12.872 70.4526 13.736V14.888C71.1886 13.608 72.1646 12.632 73.3806 11.96C74.6286 11.288 76.0526 10.952 77.6526 10.952C81.1726 10.952 83.5246 12.424 84.7086 15.368C85.4126 14.024 86.4526 12.952 87.8286 12.152C89.2046 11.352 90.7566 10.952 92.4846 10.952ZM125.079 28.568C125.623 28.568 126.055 28.776 126.375 29.192C126.727 29.608 126.903 30.168 126.903 30.872C126.903 31.864 126.311 32.696 125.127 33.368C124.039 33.976 122.807 34.472 121.431 34.856C120.055 35.208 118.743 35.384 117.495 35.384C113.719 35.384 110.727 34.296 108.519 32.12C106.311 29.944 105.207 26.968 105.207 23.192C105.207 20.792 105.687 18.664 106.647 16.808C107.607 14.952 108.951 13.512 110.679 12.488C112.439 11.464 114.423 10.952 116.631 10.952C118.743 10.952 120.583 11.416 122.151 12.344C123.719 13.272 124.935 14.584 125.799 16.28C126.663 17.976 127.095 19.976 127.095 22.28C127.095 23.656 126.487 24.344 125.271 24.344H111.111C111.303 26.552 111.927 28.184 112.983 29.24C114.039 30.264 115.575 30.776 117.591 30.776C118.615 30.776 119.511 30.648 120.279 30.392C121.079 30.136 121.975 29.784 122.967 29.336C123.927 28.824 124.631 28.568 125.079 28.568ZM116.775 15.176C115.143 15.176 113.831 15.688 112.839 16.712C111.879 17.736 111.303 19.208 111.111 21.128H121.959C121.895 19.176 121.415 17.704 120.519 16.712C119.623 15.688 118.375 15.176 116.775 15.176Z" fill="#D17A90"/>
</svg>
