<svg width="174" height="44" viewBox="0 0 174 44" fill="none" xmlns="http://www.w3.org/2000/svg">
<path d="M3.21219 35.288C2.28419 35.288 1.53219 35.016 0.956188 34.472C0.412188 33.896 0.140188 33.128 0.140188 32.168V4.088C0.140188 3.16 0.396188 2.44 0.908188 1.928C1.45219 1.416 2.18819 1.16 3.11619 1.16H14.9242C18.5402 1.16 21.3562 2.072 23.3722 3.896C25.3882 5.688 26.3962 8.216 26.3962 11.48C26.3962 14.744 25.3882 17.288 23.3722 19.112C21.3562 20.936 18.5402 21.848 14.9242 21.848H6.33219V32.168C6.33219 33.128 6.04419 33.896 5.46819 34.472C4.92419 35.016 4.17219 35.288 3.21219 35.288ZM14.1562 17.096C18.4122 17.096 20.5402 15.24 20.5402 11.528C20.5402 7.816 18.4122 5.96 14.1562 5.96H6.33219V17.096H14.1562ZM43.9349 11.048C44.7669 10.984 45.4229 11.16 45.9029 11.576C46.3829 11.992 46.6229 12.616 46.6229 13.448C46.6229 14.312 46.4149 14.952 45.9989 15.368C45.5829 15.784 44.8309 16.056 43.7429 16.184L42.3029 16.328C40.4149 16.52 39.0229 17.16 38.1269 18.248C37.2629 19.336 36.8309 20.696 36.8309 22.328V32.408C36.8309 33.336 36.5429 34.056 35.9669 34.568C35.3909 35.048 34.6709 35.288 33.8069 35.288C32.9429 35.288 32.2229 35.048 31.6469 34.568C31.1029 34.056 30.8309 33.336 30.8309 32.408V13.832C30.8309 12.936 31.1029 12.248 31.6469 11.768C32.2229 11.288 32.9269 11.048 33.7589 11.048C34.5909 11.048 35.2629 11.288 35.7749 11.768C36.2869 12.216 36.5429 12.872 36.5429 13.736V15.656C37.1509 14.248 38.0469 13.16 39.2309 12.392C40.4469 11.624 41.7909 11.192 43.2629 11.096L43.9349 11.048ZM59.4412 35.384C57.0412 35.384 54.9292 34.888 53.1052 33.896C51.3132 32.904 49.9212 31.48 48.9292 29.624C47.9372 27.768 47.4412 25.608 47.4412 23.144C47.4412 20.68 47.9372 18.536 48.9292 16.712C49.9212 14.856 51.3132 13.432 53.1052 12.44C54.9292 11.448 57.0412 10.952 59.4412 10.952C61.8412 10.952 63.9372 11.448 65.7292 12.44C67.5532 13.432 68.9452 14.856 69.9052 16.712C70.8972 18.536 71.3932 20.68 71.3932 23.144C71.3932 25.608 70.8972 27.768 69.9052 29.624C68.9452 31.48 67.5532 32.904 65.7292 33.896C63.9372 34.888 61.8412 35.384 59.4412 35.384ZM59.3932 30.728C61.3452 30.728 62.8332 30.088 63.8572 28.808C64.8812 27.528 65.3932 25.64 65.3932 23.144C65.3932 20.68 64.8812 18.808 63.8572 17.528C62.8332 16.216 61.3612 15.56 59.4412 15.56C57.5212 15.56 56.0332 16.216 54.9772 17.528C53.9532 18.808 53.4412 20.68 53.4412 23.144C53.4412 25.64 53.9532 27.528 54.9772 28.808C56.0012 30.088 57.4732 30.728 59.3932 30.728ZM72.9866 43.736C71.8346 43.8 70.9546 43.64 70.3466 43.256C69.7066 42.872 69.3866 42.28 69.3866 41.48C69.3866 40.168 70.1866 39.448 71.7866 39.32L73.0826 39.224C74.1706 39.16 74.9866 38.824 75.5306 38.216C76.0746 37.608 76.3466 36.68 76.3466 35.432V13.88C76.3466 12.952 76.6186 12.248 77.1626 11.768C77.7386 11.288 78.4586 11.048 79.3226 11.048C80.1866 11.048 80.9066 11.288 81.4826 11.768C82.0586 12.248 82.3466 12.952 82.3466 13.88V35C82.3466 40.376 79.6586 43.256 74.2826 43.64L72.9866 43.736ZM79.2746 6.776C78.1866 6.776 77.3226 6.488 76.6826 5.912C76.0426 5.304 75.7226 4.52 75.7226 3.56C75.7226 2.6 76.0426 1.832 76.6826 1.256C77.3226 0.679999 78.1866 0.391999 79.2746 0.391999C80.3306 0.391999 81.1786 0.679999 81.8186 1.256C82.4906 1.832 82.8266 2.6 82.8266 3.56C82.8266 4.52 82.5066 5.304 81.8666 5.912C81.2266 6.488 80.3626 6.776 79.2746 6.776ZM107.11 28.568C107.654 28.568 108.086 28.776 108.406 29.192C108.758 29.608 108.934 30.168 108.934 30.872C108.934 31.864 108.342 32.696 107.158 33.368C106.07 33.976 104.838 34.472 103.462 34.856C102.086 35.208 100.774 35.384 99.5261 35.384C95.7501 35.384 92.7581 34.296 90.5501 32.12C88.3421 29.944 87.2381 26.968 87.2381 23.192C87.2381 20.792 87.7181 18.664 88.6781 16.808C89.6381 14.952 90.9821 13.512 92.7101 12.488C94.4701 11.464 96.4541 10.952 98.6621 10.952C100.774 10.952 102.614 11.416 104.182 12.344C105.75 13.272 106.966 14.584 107.83 16.28C108.694 17.976 109.126 19.976 109.126 22.28C109.126 23.656 108.518 24.344 107.302 24.344H93.1421C93.3341 26.552 93.9581 28.184 95.0141 29.24C96.0701 30.264 97.6061 30.776 99.6221 30.776C100.646 30.776 101.542 30.648 102.31 30.392C103.11 30.136 104.006 29.784 104.998 29.336C105.958 28.824 106.662 28.568 107.11 28.568ZM98.8061 15.176C97.1741 15.176 95.8621 15.688 94.8701 16.712C93.9101 17.736 93.3341 19.208 93.1421 21.128H103.99C103.926 19.176 103.446 17.704 102.55 16.712C101.654 15.688 100.406 15.176 98.8061 15.176ZM124.45 35.384C122.114 35.384 120.05 34.888 118.258 33.896C116.498 32.904 115.138 31.496 114.178 29.672C113.218 27.848 112.738 25.72 112.738 23.288C112.738 20.856 113.234 18.712 114.226 16.856C115.25 14.968 116.674 13.512 118.498 12.488C120.322 11.464 122.418 10.952 124.786 10.952C126.034 10.952 127.282 11.128 128.53 11.48C129.81 11.832 130.93 12.312 131.89 12.92C132.914 13.592 133.426 14.44 133.426 15.464C133.426 16.168 133.25 16.744 132.898 17.192C132.578 17.608 132.146 17.816 131.602 17.816C131.25 17.816 130.882 17.736 130.498 17.576C130.114 17.416 129.73 17.224 129.346 17C128.642 16.584 127.97 16.264 127.33 16.04C126.69 15.784 125.954 15.656 125.122 15.656C123.138 15.656 121.602 16.312 120.514 17.624C119.458 18.904 118.93 20.76 118.93 23.192C118.93 25.592 119.458 27.448 120.514 28.76C121.602 30.04 123.138 30.68 125.122 30.68C125.922 30.68 126.626 30.568 127.234 30.344C127.874 30.088 128.578 29.752 129.346 29.336C129.826 29.048 130.242 28.84 130.594 28.712C130.946 28.552 131.298 28.472 131.65 28.472C132.162 28.472 132.594 28.696 132.946 29.144C133.298 29.592 133.474 30.152 133.474 30.824C133.474 31.368 133.346 31.848 133.09 32.264C132.866 32.648 132.482 33 131.938 33.32C130.946 33.96 129.794 34.472 128.482 34.856C127.17 35.208 125.826 35.384 124.45 35.384ZM149.804 30.824C151.404 30.92 152.204 31.64 152.204 32.984C152.204 33.752 151.884 34.344 151.244 34.76C150.636 35.144 149.756 35.304 148.604 35.24L147.308 35.144C141.932 34.76 139.244 31.88 139.244 26.504V16.04H136.844C135.98 16.04 135.308 15.848 134.828 15.464C134.38 15.08 134.156 14.52 134.156 13.784C134.156 13.048 134.38 12.488 134.828 12.104C135.308 11.72 135.98 11.528 136.844 11.528H139.244V7.112C139.244 6.248 139.516 5.56 140.06 5.048C140.604 4.536 141.34 4.28 142.268 4.28C143.164 4.28 143.884 4.536 144.428 5.048C144.972 5.56 145.244 6.248 145.244 7.112V11.528H149.324C150.188 11.528 150.844 11.72 151.292 12.104C151.772 12.488 152.012 13.048 152.012 13.784C152.012 14.52 151.772 15.08 151.292 15.464C150.844 15.848 150.188 16.04 149.324 16.04H145.244V26.936C145.244 29.304 146.332 30.568 148.508 30.728L149.804 30.824ZM163.827 35.384C160.339 35.384 157.523 34.696 155.379 33.32C154.355 32.712 153.843 31.848 153.843 30.728C153.843 30.088 154.019 29.576 154.371 29.192C154.723 28.776 155.155 28.568 155.667 28.568C156.211 28.568 156.963 28.824 157.923 29.336C158.947 29.816 159.875 30.184 160.707 30.44C161.571 30.696 162.659 30.824 163.971 30.824C165.315 30.824 166.355 30.6 167.091 30.152C167.859 29.704 168.243 29.08 168.243 28.28C168.243 27.736 168.083 27.304 167.763 26.984C167.475 26.664 166.931 26.376 166.131 26.12C165.363 25.832 164.179 25.512 162.579 25.16C159.731 24.584 157.683 23.768 156.435 22.712C155.219 21.656 154.611 20.2 154.611 18.344C154.611 16.936 155.027 15.672 155.859 14.552C156.691 13.4 157.827 12.52 159.267 11.912C160.739 11.272 162.403 10.952 164.259 10.952C165.603 10.952 166.899 11.128 168.147 11.48C169.395 11.8 170.515 12.28 171.507 12.92C172.531 13.56 173.043 14.408 173.043 15.464C173.043 16.104 172.867 16.648 172.515 17.096C172.163 17.512 171.731 17.72 171.219 17.72C170.867 17.72 170.515 17.656 170.163 17.528C169.843 17.368 169.427 17.144 168.915 16.856C167.987 16.376 167.187 16.024 166.515 15.8C165.843 15.544 165.011 15.416 164.019 15.416C162.835 15.416 161.891 15.656 161.187 16.136C160.515 16.616 160.179 17.272 160.179 18.104C160.179 18.904 160.531 19.512 161.235 19.928C161.939 20.344 163.299 20.76 165.315 21.176C167.459 21.624 169.139 22.136 170.355 22.712C171.571 23.288 172.435 24.008 172.947 24.872C173.491 25.736 173.763 26.84 173.763 28.184C173.763 30.36 172.851 32.104 171.027 33.416C169.235 34.728 166.835 35.384 163.827 35.384Z" fill="#966EC7"/>
</svg>
