<svg width="377" height="109" viewBox="0 0 377 109" fill="none" xmlns="http://www.w3.org/2000/svg">
<g filter="url(#filter0_d)">
<rect x="4" width="369" height="101" rx="20" fill="#ACACAC" fill-opacity="0.35"/>
</g>
<path d="M139.877 47.712C140.613 47.712 141.205 47.936 141.653 48.384C142.101 48.8 142.325 49.36 142.325 50.064V60.384C142.325 61.856 142.133 62.896 141.749 63.504C141.365 64.112 140.581 64.608 139.397 64.992C138.117 65.44 136.629 65.792 134.933 66.048C133.237 66.304 131.605 66.432 130.037 66.432C126.549 66.432 123.525 65.744 120.965 64.368C118.405 62.992 116.437 61.008 115.061 58.416C113.717 55.792 113.045 52.672 113.045 49.056C113.045 45.504 113.717 42.432 115.061 39.84C116.437 37.216 118.373 35.216 120.869 33.84C123.365 32.432 126.309 31.728 129.701 31.728C134.213 31.728 137.909 32.944 140.789 35.376C141.173 35.728 141.445 36.08 141.605 36.432C141.797 36.784 141.893 37.2 141.893 37.68C141.893 38.384 141.701 38.976 141.317 39.456C140.933 39.936 140.469 40.176 139.925 40.176C139.573 40.176 139.253 40.128 138.965 40.032C138.677 39.904 138.341 39.712 137.957 39.456C136.549 38.464 135.237 37.776 134.021 37.392C132.805 36.976 131.429 36.768 129.893 36.768C126.405 36.768 123.765 37.808 121.973 39.888C120.213 41.936 119.333 44.992 119.333 49.056C119.333 57.376 122.981 61.536 130.277 61.536C132.453 61.536 134.629 61.232 136.805 60.624V52.128H131.381C130.613 52.128 130.005 51.936 129.557 51.552C129.141 51.168 128.933 50.624 128.933 49.92C128.933 49.216 129.141 48.672 129.557 48.288C130.005 47.904 130.613 47.712 131.381 47.712H139.877ZM158.952 41.952C162.216 41.952 164.632 42.768 166.2 44.4C167.8 46 168.6 48.448 168.6 51.744V63.456C168.6 64.32 168.344 65.008 167.832 65.52C167.32 66 166.616 66.24 165.72 66.24C164.888 66.24 164.2 65.984 163.656 65.472C163.144 64.96 162.888 64.288 162.888 63.456V62.4C162.344 63.648 161.48 64.624 160.296 65.328C159.144 66.032 157.8 66.384 156.264 66.384C154.696 66.384 153.272 66.064 151.992 65.424C150.712 64.784 149.704 63.904 148.968 62.784C148.232 61.664 147.864 60.416 147.864 59.04C147.864 57.312 148.296 55.952 149.16 54.96C150.056 53.968 151.496 53.248 153.48 52.8C155.464 52.352 158.2 52.128 161.688 52.128H162.888V51.024C162.888 49.456 162.552 48.32 161.88 47.616C161.208 46.88 160.12 46.512 158.616 46.512C157.688 46.512 156.744 46.656 155.784 46.944C154.824 47.2 153.688 47.584 152.376 48.096C151.544 48.512 150.936 48.72 150.552 48.72C149.976 48.72 149.496 48.512 149.112 48.096C148.76 47.68 148.584 47.136 148.584 46.464C148.584 45.92 148.712 45.456 148.968 45.072C149.256 44.656 149.72 44.272 150.36 43.92C151.48 43.312 152.808 42.832 154.344 42.48C155.912 42.128 157.448 41.952 158.952 41.952ZM157.464 62.064C159.064 62.064 160.36 61.536 161.352 60.48C162.376 59.392 162.888 58 162.888 56.304V55.296H162.024C159.88 55.296 158.216 55.392 157.032 55.584C155.848 55.776 155 56.112 154.488 56.592C153.976 57.072 153.72 57.728 153.72 58.56C153.72 59.584 154.072 60.432 154.776 61.104C155.512 61.744 156.408 62.064 157.464 62.064ZM177.674 66.288C176.81 66.288 176.09 66.048 175.514 65.568C174.97 65.056 174.698 64.336 174.698 63.408V34.752C174.698 33.824 174.97 33.12 175.514 32.64C176.09 32.16 176.81 31.92 177.674 31.92C178.538 31.92 179.258 32.16 179.834 32.64C180.41 33.12 180.698 33.824 180.698 34.752V63.408C180.698 64.336 180.41 65.056 179.834 65.568C179.258 66.048 178.538 66.288 177.674 66.288ZM189.862 66.288C188.998 66.288 188.278 66.048 187.702 65.568C187.158 65.056 186.886 64.336 186.886 63.408V34.752C186.886 33.824 187.158 33.12 187.702 32.64C188.278 32.16 188.998 31.92 189.862 31.92C190.726 31.92 191.446 32.16 192.022 32.64C192.598 33.12 192.886 33.824 192.886 34.752V63.408C192.886 64.336 192.598 65.056 192.022 65.568C191.446 66.048 190.726 66.288 189.862 66.288ZM217.649 59.568C218.193 59.568 218.625 59.776 218.945 60.192C219.297 60.608 219.473 61.168 219.473 61.872C219.473 62.864 218.881 63.696 217.697 64.368C216.609 64.976 215.377 65.472 214.001 65.856C212.625 66.208 211.313 66.384 210.065 66.384C206.289 66.384 203.297 65.296 201.089 63.12C198.881 60.944 197.777 57.968 197.777 54.192C197.777 51.792 198.257 49.664 199.217 47.808C200.177 45.952 201.521 44.512 203.249 43.488C205.009 42.464 206.993 41.952 209.201 41.952C211.313 41.952 213.153 42.416 214.721 43.344C216.289 44.272 217.505 45.584 218.369 47.28C219.233 48.976 219.665 50.976 219.665 53.28C219.665 54.656 219.057 55.344 217.841 55.344H203.681C203.873 57.552 204.497 59.184 205.553 60.24C206.609 61.264 208.145 61.776 210.161 61.776C211.185 61.776 212.081 61.648 212.849 61.392C213.649 61.136 214.545 60.784 215.537 60.336C216.497 59.824 217.201 59.568 217.649 59.568ZM209.345 46.176C207.713 46.176 206.401 46.688 205.409 47.712C204.449 48.736 203.873 50.208 203.681 52.128H214.529C214.465 50.176 213.985 48.704 213.089 47.712C212.193 46.688 210.945 46.176 209.345 46.176ZM237.677 42.048C238.509 41.984 239.165 42.16 239.645 42.576C240.125 42.992 240.365 43.616 240.365 44.448C240.365 45.312 240.157 45.952 239.741 46.368C239.325 46.784 238.573 47.056 237.485 47.184L236.045 47.328C234.157 47.52 232.765 48.16 231.869 49.248C231.005 50.336 230.573 51.696 230.573 53.328V63.408C230.573 64.336 230.285 65.056 229.709 65.568C229.133 66.048 228.413 66.288 227.549 66.288C226.685 66.288 225.965 66.048 225.389 65.568C224.845 65.056 224.573 64.336 224.573 63.408V44.832C224.573 43.936 224.845 43.248 225.389 42.768C225.965 42.288 226.669 42.048 227.501 42.048C228.333 42.048 229.005 42.288 229.517 42.768C230.029 43.216 230.285 43.872 230.285 44.736V46.656C230.893 45.248 231.789 44.16 232.973 43.392C234.189 42.624 235.533 42.192 237.005 42.096L237.677 42.048ZM260.769 43.776C261.025 43.2 261.361 42.784 261.777 42.528C262.225 42.24 262.705 42.096 263.217 42.096C263.953 42.096 264.609 42.352 265.185 42.864C265.793 43.344 266.097 43.952 266.097 44.688C266.097 45.04 266.001 45.408 265.809 45.792L252.705 73.248C252.161 74.336 251.313 74.88 250.161 74.88C249.425 74.88 248.769 74.64 248.193 74.16C247.649 73.712 247.377 73.136 247.377 72.432C247.377 72.08 247.473 71.68 247.665 71.232L250.929 64.368L242.001 45.792C241.841 45.472 241.761 45.104 241.761 44.688C241.761 43.952 242.065 43.328 242.673 42.816C243.313 42.304 244.033 42.048 244.833 42.048C245.377 42.048 245.873 42.192 246.321 42.48C246.769 42.736 247.121 43.152 247.377 43.728L254.097 58.56L260.769 43.776Z" fill="#DA454B"/>
<defs>
<filter id="filter0_d" x="0" y="0" width="377" height="109" filterUnits="userSpaceOnUse" color-interpolation-filters="sRGB">
<feFlood flood-opacity="0" result="BackgroundImageFix"/>
<feColorMatrix in="SourceAlpha" type="matrix" values="0 0 0 0 0 0 0 0 0 0 0 0 0 0 0 0 0 0 127 0"/>
<feOffset dy="4"/>
<feGaussianBlur stdDeviation="2"/>
<feColorMatrix type="matrix" values="0 0 0 0 0 0 0 0 0 0 0 0 0 0 0 0 0 0 0.5 0"/>
<feBlend mode="normal" in2="BackgroundImageFix" result="effect1_dropShadow"/>
<feBlend mode="normal" in="SourceGraphic" in2="effect1_dropShadow" result="shape"/>
</filter>
</defs>
</svg>
